<svg viewBox="0 0 208.64 78.37" xmlns="http://www.w3.org/2000/svg" id="a"><path d="M53.17,17.75h7.87v.83c-.53.08-.94.3-.94.83s.19,1.28.3,1.66l4.56,17.29c.57,2.15.98,3.16,2,3.32v.83h-7.57v-.83c.9-.19,1.43-.57,1.43-1.96,0-4.07-3.5-7.12-8.06-7.12l-1.24,5.12c-.3,1.28-.34,2.11-.34,2.19,0,1.17.68,1.66,1.58,1.77v.83h-6.56v-.83c1.05-.26,1.85-.64,2.6-3.24l4.9-17.29c.15-.57.3-1.24.3-1.58,0-.72-.26-.94-.83-.98v-.83ZM59.2,32.6l-3.05-11.98-2.75,9.87c2.56.04,4.56.94,5.8,2.11ZM68.04,17.79l5.84-1.02v21.96c0,2.19.9,2.9,1.96,2.94v.83h-7.8v-.83c.98-.04,2.03-.53,2.03-2.94v-17.97c0-1.62-.57-2-2.03-2.11v-.87ZM78.05,17.79l5.84-1.02v21.96c0,2.19.9,2.9,1.96,2.94v.83h-7.8v-.83c.98-.04,2.03-.53,2.03-2.94v-17.97c0-1.62-.57-2-2.03-2.11v-.87ZM112.13,17.75c.9,0,1.17-.19,1.62-.6l1.32,8.18-.38.11c-.98-3.69-3.84-5.8-6.56-5.8-1.96,0-2.83.68-2.83,2.37v2.67h2c1.81,0,2.71-.45,2.83-2.71v-.08l.53-.08.94,9.08-.49.08c-.34-2.6-1.69-4.11-4.41-4.11h-1.39v11.87c0,1.58.49,2.86,1.96,2.94v.83h-8.14v-.83c.75,0,1.96-.38,1.96-2.9v-17.29c0-1.92-.6-2.79-1.96-2.9v-.83h13ZM123.24,27.21c1.39-2.45,2.52-3.69,5.27-3.69l.79.04-.87,4.26c-.11-.11-.79-.98-1.92-.98-2.6,0-3.05,3.84-3.05,6.37v5.54c0,2.52,1.13,2.9,1.96,2.94v.83h-7.72v-.83c1.28-.08,1.96-1.02,1.96-2.9v-8.85c0-3.73-.68-4.71-2.41-4.86h-.11v-.83l5.2-.68c.68,1.21.87,2.22.9,3.65ZM130.03,33.27c0-5.76,3.65-9.72,7.8-9.72,3.28,0,5.8,1.88,6.9,6.33l-10.74,3.88c.23,4.37,2.67,7.01,5.09,7.01,1.96,0,4.14-1.39,5.27-4.37l.26.08-1.36,6.14c-.15-.08-.38-.15-.57-.15-1.32,0-2.6.41-4.11.41-5.24,0-8.55-3.81-8.55-9.61ZM137.3,25.44c-1.73.11-3.35,1.96-3.43,6.29l6.67-2.3c-.38-2.67-1.43-4.11-3.24-3.99ZM147.25,28.94c0-3.24,3.05-5.39,6.4-5.39.9,0,1.73.19,2.41.34.49.11.94.23,1.28.23.3,0,.57-.19.9-.45l.34,5.95h-.38c-.41-2.75-2.37-4.29-4.37-4.29-1.85,0-2.94,1.05-2.94,2.45s1.51,1.92,3.32,2.52c2.86.9,5.99,1.96,5.99,6.14,0,3.2-2.71,6.44-7.46,6.44-2.07,0-3.62-.79-4.22-.79-.49,0-.79.34-1.05.68l-.57-7.12.34-.08c.79,3.58,2.98,5.43,5.54,5.43,2.41,0,3.77-1.81,3.77-3.28,0-2.19-1.92-2.9-4.03-3.62-2.56-.87-5.27-1.73-5.27-5.16ZM162.47,17.79l5.8-1.02v10.32c1.92-2.26,3.73-3.54,5.84-3.54,1.51,0,3.62.6,3.62,5.65v9.57c0,2.34.87,2.86,1.92,2.9v.83h-7.72v-.83c1.43-.04,2-1.24,2-2.94v-8.89c0-2.19-.3-3.47-1.77-3.47-1.77,0-3.88,2.11-3.88,6.03v6.37c0,2.26.9,2.83,1.92,2.9v.83h-7.72v-.83c.9-.04,2-.45,2-2.9v-18.5c0-1.17-.57-1.62-2-1.66v-.83Z"></path><path fill="#619a2e" d="M64.96,38.36l-4.56-17.29c-.11-.38-.3-1.13-.3-1.66s.41-.75.94-.83v-.83h-7.87v.83c.57.04.83.26.83.98,0,.34-.15,1.02-.3,1.58l-4.9,17.29c-.75,2.6-1.54,2.98-2.6,3.24v.83h6.56v-.83c-.9-.11-1.58-.6-1.58-1.77,0-.08.04-.9.34-2.19l1.24-5.12c4.56,0,8.06,3.05,8.06,7.12,0,1.39-.53,1.77-1.43,1.96v.83h7.57v-.83c-1.02-.15-1.43-1.17-2-3.32ZM53.4,30.49l2.75-9.87,3.05,11.98c-1.24-1.17-3.24-2.07-5.8-2.11Z"></path><path fill="#619a2e" d="M68.04,17.79l5.84-1.02v21.96c0,2.19.9,2.9,1.96,2.94v.83h-7.8v-.83c.98-.04,2.03-.53,2.03-2.94v-17.97c0-1.62-.57-2-2.03-2.11v-.87Z"></path><path fill="#619a2e" d="M78.05,17.79l5.84-1.02v21.96c0,2.19.9,2.9,1.96,2.94v.83h-7.8v-.83c.98-.04,2.03-.53,2.03-2.94v-17.97c0-1.62-.57-2-2.03-2.11v-.87Z"></path><path fill="#619a2e" d="M112.13,17.75c.9,0,1.17-.19,1.62-.6l1.32,8.18-.38.11c-.98-3.69-3.84-5.8-6.56-5.8-1.96,0-2.83.68-2.83,2.37v2.67h2c1.81,0,2.71-.45,2.83-2.71v-.08l.53-.08.94,9.08-.49.08c-.34-2.6-1.69-4.11-4.41-4.11h-1.39v11.87c0,1.58.49,2.86,1.96,2.94v.83h-8.14v-.83c.75,0,1.96-.38,1.96-2.9v-17.29c0-1.92-.6-2.79-1.96-2.9v-.83h13Z"></path><path fill="#619a2e" d="M123.24,27.21c1.39-2.45,2.52-3.69,5.27-3.69l.79.04-.87,4.26c-.11-.11-.79-.98-1.92-.98-2.6,0-3.05,3.84-3.05,6.37v5.54c0,2.52,1.13,2.9,1.96,2.94v.83h-7.72v-.83c1.28-.08,1.96-1.02,1.96-2.9v-8.85c0-3.73-.68-4.71-2.41-4.86h-.11v-.83l5.2-.68c.68,1.21.87,2.22.9,3.65Z"></path><path fill="#619a2e" d="M139.07,40.77c-2.41,0-4.86-2.64-5.09-7.01l10.74-3.88c-1.09-4.45-3.62-6.33-6.9-6.33-4.14,0-7.8,3.96-7.8,9.72s3.32,9.61,8.55,9.61c1.51,0,2.79-.41,4.11-.41.19,0,.42.08.57.15l1.36-6.14-.26-.08c-1.13,2.98-3.32,4.37-5.27,4.37ZM137.3,25.44c1.81-.11,2.86,1.32,3.24,3.99l-6.67,2.3c.08-4.33,1.7-6.18,3.43-6.29Z"></path><path fill="#619a2e" d="M147.25,28.94c0-3.24,3.05-5.39,6.4-5.39.9,0,1.73.19,2.41.34.49.11.94.23,1.28.23.3,0,.57-.19.9-.45l.34,5.95h-.38c-.41-2.75-2.37-4.29-4.37-4.29-1.85,0-2.94,1.05-2.94,2.45s1.51,1.92,3.32,2.52c2.86.9,5.99,1.96,5.99,6.14,0,3.2-2.71,6.44-7.46,6.44-2.07,0-3.62-.79-4.22-.79-.49,0-.79.34-1.05.68l-.57-7.12.34-.08c.79,3.58,2.98,5.43,5.54,5.43,2.41,0,3.77-1.81,3.77-3.28,0-2.19-1.92-2.9-4.03-3.62-2.56-.87-5.27-1.73-5.27-5.16Z"></path><path fill="#619a2e" d="M162.47,17.79l5.8-1.02v10.32c1.92-2.26,3.73-3.54,5.84-3.54,1.51,0,3.62.6,3.62,5.65v9.57c0,2.34.87,2.86,1.92,2.9v.83h-7.72v-.83c1.43-.04,2-1.24,2-2.94v-8.89c0-2.19-.3-3.47-1.77-3.47-1.77,0-3.88,2.11-3.88,6.03v6.37c0,2.26.9,2.83,1.92,2.9v.83h-7.72v-.83c.9-.04,2-.45,2-2.9v-18.5c0-1.17-.57-1.62-2-1.66v-.83Z"></path><path fill="#fff" d="M184.1,56.81c-.02-.12-.08-.22-.18-.3-.09-.08-.2-.11-.32-.09-1.03.14-1.95.24-2.78.32.11-.44.2-.81.28-1.1,0-.02,0-.03.02-.05,1.26-1.99,2.25-3.92,2.99-5.79.75-1.87.94-3.08.57-3.63-.15-.23-.36-.32-.62-.28-.31.05-.63.34-.96.87-.34.52-.65,1.19-.94,2-.29.8-.53,1.48-.71,2.07-.17.57-.32,1.12-.46,1.65-.34,1.3-.7,2.75-1.1,4.34-.55.05-1.26.1-2.11.16-.12.02-.22.07-.3.16-.08.09-.11.2-.11.32.02.08.05.15.09.21.03.06.08.11.14.16.06.03.13.05.21.05h.05c.6-.05,1.12-.1,1.58-.14-.51,1.05-1.02,1.94-1.52,2.64-.51.72-.93,1.21-1.26,1.47-.32.24-.59.34-.8.3-.08,0-.15-.02-.23-.07-.06-.06-.15-.19-.28-.39-.12-.2-.23-.44-.32-.73-.09-.31-.18-.75-.28-1.33s-.15-1.25-.18-2c-.02-.21-.12-.34-.32-.39-.2-.06-.36-.02-.48.14-.08.11-.21.3-.41.57-.89,1.22-1.64,2.17-2.25,2.82-.12.12-.23.22-.32.3-.09-.49.07-1.31.48-2.46.05-.14.11-.27.17-.4.06-.08.12-.16.18-.24.06-.08.08-.18.07-.3.34-.66.73-1.16,1.17-1.47.55-.4,1.1-.28,1.63.37.08.09.18.15.3.16.12,0,.23-.04.32-.11.09-.08.14-.18.14-.3.01-.12-.02-.23-.09-.32-.69-.83-1.44-1.09-2.25-.8-.55.18-1.06.64-1.54,1.35-.25.38-.46.76-.65,1.15-1.59,2.2-3.03,3.77-4.33,4.69-.72.52-1.31.61-1.77.28-.08-.06-.15-.14-.23-.23-.06-.09-.14-.24-.23-.46-.08-.23-.13-.49-.16-.78-.02-.31.02-.71.09-1.22.08-.51.21-1.06.39-1.65,1.1-.93,1.94-1.81,2.5-2.62.57-.81.77-1.44.6-1.88-.11-.32-.34-.47-.69-.46-.49.02-1.04.43-1.65,1.24-.51.68-.96,1.58-1.34,2.66-2.25,1.6-4.32,3.13-6.2,4.59-.21-.35-.48-.68-.8-.99-.32-.32-.73-.64-1.24-.96-.51-.32-.97-.6-1.4-.85-.43-.24-1.04-.54-1.84-.87-.8-.35-1.44-.63-1.93-.83-.49-.21-1.24-.53-2.25-.94-.81-.32-1.42-.57-1.84-.73-1.81-.75-2.46-1.91-1.95-3.49.34-1.1,1.18-2.33,2.53-3.7,1.35-1.36,3.01-2.66,4.98-3.9,1.22-.8,2.43-1.46,3.61-2,1.19-.55,2.27-.94,3.24-1.17.96-.23,1.73-.28,2.3-.14.35.08.62.24.8.48.2.24.25.65.16,1.22-.02.12.02.24.09.34.08.09.18.15.3.16.08.02.15,0,.23-.02.08-.03.14-.08.18-.14.05-.06.08-.13.09-.21.06-.47.05-.88-.05-1.22-.08-.35-.21-.63-.41-.83-.2-.2-.4-.34-.6-.44-.18-.11-.39-.18-.62-.23-1.01-.23-2.44,0-4.29.67-1.84.67-3.67,1.58-5.49,2.71-1.81,1.13-3.47,2.46-5.01,3.97-1.53,1.5-2.49,2.89-2.89,4.18-.32,1.01-.27,1.91.16,2.69.43.78,1.19,1.4,2.3,1.86.43.18,1.04.44,1.84.76,2.91,1.18,5.04,2.13,6.38,2.85,1.35.7,2.25,1.48,2.71,2.32-4.07,3.18-7.1,5.88-9.09,8.08s-2.81,3.79-2.46,4.75c.2.55.67.83,1.4.83.08,0,.16,0,.25-.02.63-.05,1.36-.25,2.18-.62.84-.37,1.72-.9,2.64-1.58.93-.69,1.81-1.48,2.64-2.37.84-.89,1.59-1.92,2.23-3.1.66-1.18,1.11-2.39,1.35-3.63.15-.75.13-1.44-.07-2.07,1.66-1.28,3.47-2.63,5.42-4.04-.15.57-.27,1.11-.31,1.59-.08.67-.06,1.22.05,1.63.11.41.24.73.39.96.14.23.3.41.48.55.32.23.7.34,1.12.34.55,0,1.11-.2,1.68-.6.96-.68,1.99-1.69,3.09-3.02-.03.23-.07.45-.07.65-.02.66.16,1.06.53,1.19.37.17.81-.02,1.33-.57.58-.64,1.25-1.47,2-2.48.24,2.56.88,3.93,1.91,4.13.09.02.18.02.25.02.96,0,2.03-.95,3.19-2.86-.66,2.84-1.3,5.67-1.88,8.51-.57,2.66-.99,4.82-1.26,6.48-.21,1.36-.31,2.21-.3,2.55,0,.35.12.56.35.62.05.02.09.02.14.02.12,0,.24-.06.34-.18.11-.12.19-.25.25-.39.05-.12.11-.31.21-.57.05-.11.05-.22,0-.34-.06-.11-.14-.18-.25-.23h-.07c.23-1.59.73-4.24,1.49-7.95.77-3.7,1.59-7.39,2.48-11.05.96-.09,2.01-.21,3.12-.37.12-.02.22-.07.3-.16.08-.09.11-.2.09-.32ZM183.93,47.12c-.15,1.32-.84,3.12-2.07,5.42.7-2.6,1.39-4.41,2.07-5.42ZM166.69,54.33c-.17.57-.7,1.29-1.59,2.18.52-1.12,1.05-1.84,1.59-2.18ZM157.24,64.57c-.24,1.18-.68,2.33-1.31,3.44-.63,1.13-1.34,2.1-2.14,2.92-.78.83-1.61,1.56-2.48,2.2-.86.64-1.67,1.13-2.43,1.47-.75.34-1.39.53-1.91.57-.44.03-.7-.05-.76-.23-.12-.34.11-.96.71-1.86.6-.89,1.46-1.91,2.57-3.05,1.91-1.94,4.5-4.19,7.76-6.75.08.4.07.83-.02,1.29Z"></path><path fill="#fff" d="M208.44,43.33c-.15-.17-.34-.21-.55-.14-.52.17-1.19,1.42-2.02,3.77-.81,2.33-1.62,5.41-2.43,9.25-.06.12-.13.25-.21.37-.08-.64-.38-1.04-.92-1.19-.54-.17-1.15,0-1.84.51-.53.39-1,.95-1.42,1.67,0,0,0,0,0,0-.51.66-1.12,1.19-1.84,1.61-.7.41-1.35.56-1.93.44.03-.15.05-.31.07-.46.03-.61.02-1.14-.05-1.58-.06-.44-.16-.77-.3-.99-.12-.21-.25-.37-.39-.46-.12-.11-.26-.18-.41-.21-.28-.05-.54.02-.8.21-.24.18-.44.44-.57.78-.14-.05-.26-.03-.37.05-.22.14-.41.32-.58.52-.04.03-.08.06-.12.1-.51.66-1.12,1.19-1.84,1.61-.71.41-1.35.56-1.93.44.03-.15.05-.31.07-.46.03-.61.02-1.14-.05-1.58-.06-.44-.16-.77-.3-.99-.12-.21-.25-.37-.39-.46-.12-.11-.26-.18-.41-.21-.27-.05-.54.02-.8.21-.24.18-.44.44-.57.78-.14-.05-.26-.03-.37.05-.51.32-.89.83-1.15,1.52-.28.67-.31,1.39-.11,2.14.12.47.34.85.64,1.13.32.26.69.4,1.1.41h.02c.41,0,.81-.15,1.2-.44.38-.31.68-.72.9-1.24.77.17,1.58.02,2.46-.44.3-.16.58-.35.85-.55-.02.36.02.74.12,1.12.12.47.34.85.64,1.13.32.26.69.4,1.1.41h.02c.41,0,.81-.15,1.19-.44.38-.31.68-.72.9-1.24.77.17,1.58.02,2.46-.44.24-.13.48-.27.7-.43-.12.47-.18.93-.19,1.39-.02.89.22,1.51.71,1.86.75.41,1.63-.11,2.64-1.58.54-.77,1.04-1.53,1.52-2.3-.26,1.35-.51,2.73-.76,4.16-.43,2.6-.74,4.7-.92,6.29-.12,1-.19,1.75-.21,2.25,0,.52.03.86.09,1.01.08.17.2.28.37.34.06.02.12.02.18.02.28,0,.55-.29.83-.87.05-.11.05-.22,0-.34-.03-.11-.1-.19-.21-.25-.12-.05-.24-.05-.37,0,.05-1.45.41-4.23,1.1-8.31.4-2.39.82-4.64,1.26-6.75.54-1.01,1.03-2.07,1.49-3.17.46-1.1.8-1.96,1.01-2.57.21-.61.49-1.43.83-2.46.11-.32.19-.57.25-.76.8-2.42,1-3.83.6-4.23ZM186.34,60.94c-.23.2-.45.3-.67.3-.44,0-.75-.3-.92-.9-.12-.37-.13-.8-.02-1.29.12-.49.34-.88.64-1.17.05.95.57,1.7,1.56,2.25-.15.34-.35.6-.6.8ZM187.16,59.11v.14c-.41-.28-.68-.58-.8-.92-.12-.34-.14-.67-.05-.99.05-.17.11-.3.21-.39.09-.11.17-.16.23-.16h.02s.04.02.07.07c.04.05.09.12.14.23.05.11.08.24.11.41.03.17.05.39.07.67.03.26.03.57,0,.94ZM193.62,60.94c-.23.2-.45.3-.67.3-.44,0-.75-.3-.92-.9-.12-.37-.13-.8-.02-1.29.12-.49.34-.88.64-1.17.05.95.57,1.7,1.56,2.25-.15.34-.35.6-.6.8ZM194.45,59.11v.14c-.41-.28-.68-.58-.8-.92-.12-.34-.14-.67-.05-.99.05-.17.11-.3.21-.39.09-.11.17-.16.23-.16h.02s.04.02.07.07c.05.05.09.12.14.23.05.11.08.24.11.41.03.17.05.39.07.67.03.26.03.57,0,.94ZM200.66,60.76c-.28.38-.53.69-.76.92-.23.21-.4.34-.51.39-.09.03-.16.03-.21,0-.12-.06-.21-.25-.25-.57-.05-.34-.03-.77.05-1.29.09-.54.26-1.06.51-1.56.37-.78.78-1.38,1.24-1.79.47-.43.87-.64,1.19-.64h.14c.26.08.36.4.3.96-.05.23.05.38.28.46-.6,1.04-1.26,2.08-1.97,3.12ZM206.99,47.28c-.06.18-.15.44-.25.78-.57,1.76-1.06,3.16-1.49,4.2.86-3.34,1.66-5.79,2.41-7.37-.14.66-.36,1.45-.67,2.39Z"></path><polygon fill="#fff" points="182.29 22.5 182.29 17.1 180.46 17.1 180.46 16.45 184.89 16.45 184.89 17.1 183.06 17.1 183.06 22.5 182.29 22.5"></polygon><path fill="#fff" d="M185.32,22.5v-6.05h.92l1.16,3.24c.08.2.15.41.22.63.07.21.14.43.21.64h.03c.08-.21.15-.42.22-.64.07-.21.14-.42.21-.63l1.16-3.24h.92v6.05h-.71v-3.35c0-.18,0-.37.02-.57.01-.21.03-.42.04-.63.02-.21.03-.41.04-.59h-.03l-.49,1.38-1.14,3.15h-.51l-1.15-3.15-.49-1.38h-.03c.02.18.04.37.05.59.02.21.03.42.03.63.01.2.02.39.02.57v3.35h-.68Z"></path><rect fill="#fff" height=".05" width=".05" y="22.5" x="182.24"></rect><rect fill="#fff" height=".05" width=".05" y="17.05" x="182.29"></rect><rect fill="#241f21" height=".05" width=".05" y="17.1" x="180.41"></rect><rect fill="#241f21" height=".05" width=".05" y="16.4" x="180.41"></rect><rect fill="#fff" height=".05" width=".05" y="16.4" x="184.89"></rect><rect fill="#fff" height=".05" width=".05" y="17.1" x="184.89"></rect><rect fill="#fff" height=".05" width=".05" y="17.05" x="183.01"></rect><rect fill="#fff" height=".05" width=".05" y="22.5" x="183.06"></rect><polygon fill="#fff" points="182.29 22.5 182.34 22.5 182.34 17.1 182.29 17.1 182.24 17.1 182.24 22.5 182.29 22.5"></polygon><polygon fill="#fff" points="182.29 17.1 182.29 17.05 180.46 17.05 180.46 17.1 180.46 17.15 182.29 17.15 182.29 17.1"></polygon><polygon fill="#241f21" points="180.46 17.1 180.51 17.1 180.51 16.45 180.46 16.45 180.41 16.45 180.41 17.1 180.46 17.1"></polygon><polygon fill="#fff" points="180.46 16.45 180.46 16.5 184.89 16.5 184.89 16.45 184.89 16.4 180.46 16.4 180.46 16.45"></polygon><polygon fill="#fff" points="184.89 16.45 184.84 16.45 184.84 17.1 184.89 17.1 184.94 17.1 184.94 16.45 184.89 16.45"></polygon><polygon fill="#fff" points="184.89 17.1 184.89 17.05 183.06 17.05 183.06 17.1 183.06 17.15 184.89 17.15 184.89 17.1"></polygon><polygon fill="#fff" points="183.06 17.1 183.01 17.1 183.01 22.5 183.06 22.5 183.11 22.5 183.11 17.1 183.06 17.1"></polygon><polygon fill="#fff" points="183.06 22.5 183.06 22.45 182.29 22.45 182.29 22.5 182.29 22.55 183.06 22.55 183.06 22.5"></polygon><rect fill="#fff" height=".05" width=".05" y="22.5" x="185.26"></rect><rect fill="#fff" height=".05" width=".05" y="16.4" x="185.26"></rect><polygon fill="#fff" points="186.23 16.45 186.28 16.44 186.27 16.4 186.23 16.4 186.23 16.45"></polygon><polygon fill="#fff" points="187.39 19.69 187.34 19.71 187.34 19.71 187.39 19.69"></polygon><polygon fill="#fff" points="187.61 20.32 187.56 20.33 187.56 20.33 187.61 20.32"></polygon><polygon fill="#fff" points="187.82 20.95 187.78 20.97 187.79 21 187.82 21 187.82 20.95"></polygon><polygon fill="#fff" points="187.86 20.95 187.86 21 187.89 21 187.9 20.97 187.86 20.95"></polygon><polygon fill="#fff" points="188.07 20.32 188.02 20.3 188.02 20.3 188.07 20.32"></polygon><polygon fill="#fff" points="188.28 19.69 188.23 19.67 188.23 19.67 188.28 19.69"></polygon><polygon fill="#fff" points="189.43 16.45 189.43 16.4 189.4 16.4 189.39 16.44 189.43 16.45"></polygon><rect fill="#fff" height=".05" width=".05" y="16.4" x="190.35"></rect><rect fill="#fff" height=".05" width=".05" y="22.5" x="190.35"></rect><rect fill="#fff" height=".05" width=".05" y="22.5" x="189.59"></rect><polygon fill="#fff" points="189.66 18.58 189.71 18.59 189.71 18.59 189.66 18.58"></polygon><polygon fill="#fff" points="189.7 17.96 189.75 17.96 189.75 17.96 189.7 17.96"></polygon><rect fill="#fff" transform="translate(160.47 205.64) rotate(-86.38)" height=".05" width=".05" y="17.32" x="189.74"></rect><polygon fill="#fff" points="189.71 17.37 189.71 17.32 189.67 17.32 189.66 17.35 189.71 17.37"></polygon><polygon fill="#fff" points="189.22 18.75 189.27 18.76 189.27 18.76 189.22 18.75"></polygon><polygon fill="#fff" points="188.08 21.89 188.08 21.94 188.12 21.94 188.13 21.91 188.08 21.89"></polygon><polygon fill="#fff" points="187.57 21.89 187.52 21.91 187.53 21.94 187.57 21.94 187.57 21.89"></polygon><polygon fill="#fff" points="186.42 18.75 186.37 18.76 186.37 18.76 186.42 18.75"></polygon><polygon fill="#fff" points="185.93 17.37 185.98 17.35 185.97 17.32 185.93 17.32 185.93 17.37"></polygon><rect fill="#fff" height=".05" width=".05" y="17.32" x="185.85"></rect><polygon fill="#fff" points="185.95 17.96 185.9 17.96 185.9 17.96 185.95 17.96"></polygon><polygon fill="#fff" points="185.98 18.58 185.93 18.58 185.93 18.59 185.98 18.58"></polygon><rect fill="#fff" height=".05" width=".05" y="22.5" x="186"></rect><polygon fill="#fff" points="185.32 22.5 185.37 22.5 185.37 16.45 185.32 16.45 185.26 16.45 185.26 22.5 185.32 22.5"></polygon><polygon fill="#fff" points="185.32 16.45 185.32 16.5 186.23 16.5 186.23 16.45 186.23 16.4 185.32 16.4 185.32 16.45"></polygon><polygon fill="#fff" points="186.23 16.45 186.18 16.47 187.34 19.71 187.39 19.69 187.43 19.67 186.28 16.44 186.23 16.45"></polygon><path fill="#fff" d="M187.39,19.69l-.05.02c.08.2.15.41.22.63l.05-.02.05-.02c-.07-.22-.15-.42-.22-.63l-.05.02Z"></path><path fill="#fff" d="M187.61,20.32l-.05.02c.07.21.14.43.21.64l.05-.02.05-.02c-.07-.21-.14-.42-.21-.64l-.05.02Z"></path><polygon fill="#fff" points="187.82 20.95 187.82 21 187.86 21 187.86 20.95 187.86 20.9 187.82 20.9 187.82 20.95"></polygon><path fill="#fff" d="M187.86,20.95l.05.02c.08-.21.15-.42.22-.64h-.05s-.05-.03-.05-.03c-.07.21-.14.42-.21.63l.05.02Z"></path><path fill="#fff" d="M188.07,20.32l.05.02c.07-.21.14-.42.21-.63l-.05-.02-.05-.02c-.07.2-.14.41-.21.63l.05.02Z"></path><polygon fill="#fff" points="188.28 19.69 188.32 19.71 189.48 16.47 189.43 16.45 189.39 16.44 188.23 19.67 188.28 19.69"></polygon><polygon fill="#fff" points="189.43 16.45 189.43 16.5 190.35 16.5 190.35 16.45 190.35 16.4 189.43 16.4 189.43 16.45"></polygon><polygon fill="#fff" points="190.35 16.45 190.3 16.45 190.3 22.5 190.35 22.5 190.4 22.5 190.4 16.45 190.35 16.45"></polygon><polygon fill="#fff" points="190.35 22.5 190.35 22.45 189.64 22.45 189.64 22.5 189.64 22.55 190.35 22.55 190.35 22.5"></polygon><polygon fill="#fff" points="189.64 22.5 189.69 22.5 189.69 19.15 189.64 19.15 189.59 19.15 189.59 22.5 189.64 22.5"></polygon><path fill="#fff" d="M189.64,19.15h.05c0-.18,0-.36.02-.57h-.05s-.05,0-.05,0c-.01.2-.02.4-.02.57h.05Z"></path><path fill="#fff" d="M189.66,18.58h.05c.01-.21.02-.41.04-.62h-.05s-.05,0-.05,0c-.02.21-.03.42-.04.63h.05Z"></path><path fill="#fff" d="M189.7,17.96h.05c.02-.21.03-.41.04-.58h-.05s-.05,0-.05,0c-.01.18-.03.37-.04.59h.05Z"></path><polygon fill="#fff" points="189.74 17.37 189.74 17.32 189.71 17.32 189.71 17.37 189.71 17.42 189.74 17.42 189.74 17.37"></polygon><polygon fill="#fff" points="189.71 17.37 189.66 17.35 189.17 18.73 189.22 18.75 189.27 18.76 189.75 17.39 189.71 17.37"></polygon><polygon fill="#fff" points="189.22 18.75 189.17 18.73 188.03 21.88 188.08 21.89 188.13 21.91 189.27 18.76 189.22 18.75"></polygon><polygon fill="#fff" points="188.08 21.89 188.08 21.84 187.57 21.84 187.57 21.89 187.57 21.94 188.08 21.94 188.08 21.89"></polygon><polygon fill="#fff" points="187.57 21.89 187.62 21.88 186.47 18.73 186.42 18.75 186.37 18.76 187.52 21.91 187.57 21.89"></polygon><polygon fill="#fff" points="186.42 18.75 186.47 18.73 185.98 17.35 185.93 17.37 185.89 17.39 186.37 18.76 186.42 18.75"></polygon><polygon fill="#fff" points="185.93 17.37 185.93 17.32 185.9 17.32 185.9 17.37 185.9 17.42 185.93 17.42 185.93 17.37"></polygon><path fill="#fff" d="M185.9,17.37h-.05c.02.18.04.38.05.59h.05s.05,0,.05,0c-.01-.22-.03-.41-.05-.59h-.05Z"></path><path fill="#fff" d="M185.95,17.96h-.05c.02.21.03.42.03.63h.05s.05,0,.05,0c0-.21-.02-.42-.03-.63h-.05Z"></path><path fill="#fff" d="M185.98,18.58h-.05c.01.21.02.39.02.57h.1c0-.18,0-.37-.02-.57h-.05Z"></path><polygon fill="#fff" points="186 19.15 185.95 19.15 185.95 22.5 186 22.5 186.05 22.5 186.05 19.15 186 19.15"></polygon><polygon fill="#fff" points="186 22.5 186 22.45 185.32 22.45 185.32 22.5 185.32 22.55 186 22.55 186 22.5"></polygon><path fill="#fff" d="M34.02,7.14c0,.79-.61,1.43-1.36,1.43s-1.36-.64-1.36-1.43.61-1.43,1.36-1.43,1.36.64,1.36,1.43Z"></path><path fill="#fff" d="M37.9,44.97l-.26-12.42s-3.38,12.89-16.23,18.45c0,0-6.19-4.04-3.68-13.54,2.24-8.48,9.37-9.67,9.37-9.67,0,0,9.28,1.36,14.01-.63,9.64-4.07,9.73-15.91,9.73-15.91,0,0-5.33-8.15-14.51-9.96,0,0-2.8-1.53-13.78-.08-.09.01-.18.01-.27,0l-.95-.07c-.1,0-.2-.04-.29-.08C20.52.8,18.52-.06,15.26,0,4.93.22,0,9.04,0,9.04l7.46,1.59c-.2.39-2.15,3.02-2.44,3.66,0,0-1.05,2.35-1.71,4.9-2.33,9.02.58,17.81.58,17.81,2.33,7.05,6.62,11.66,8.81,13.07.75.49,2.11,1.72,4.52,2.6.74.27,1.99.51,2.88.78.9.6.8.53,1.7,1.13,0,0,5.19,4.24,15.2,2.5,10.01-1.74,15.81-11.75,15.81-11.75l-14.91-.37ZM7.68,34.34c-.94-12.83,4.58-20.89,7.07-23.25,1.85-1.75,5.7-3.8,5.7-3.8-.19.47-.33,5.43-.33,5.43,0,0-1.86.5-4.77,4.74-2.92,4.24-2.33,7.36-2.33,7.36,0,0,.27,1.73,1.49,1.45,0,0,.29-3.07,5-6.3,4.71-3.23,7.08-3.62,7.08-3.62,0,0-2.7-3.7-1.26-11.14,0,0,13.59-4.42,21.96,7.64,0,0-.81,4.24-2.28,6.96,0,0-.51-2.17-3.12-5.43-2.61-3.26-6.83-4.62-6.83-4.62l-.79,1.17s4.39,1.63,6.69,4.8c2.3,3.17,2.79,5.26,2.79,5.26-7.77,6.22-17.46.31-17.46.31,0,0-3.74,1.36-7.59,5.76-3.85,4.4-4.23,9.14-4.23,9.14-1.31,8.13,4.31,14.49,4.31,14.49,0,0-10.15-3.53-11.1-16.37ZM43.88,51.41c-6.49,5.02-14.92,3.1-14.92,3.1-4.27-.55-5.24-2.13-5.24-2.13,0,0,4.39-1.92,7.24-4.51,2.76-2.51,4.11-4.81,4.11-4.81,0,0,.74-.63.51,4.69,0,0,6.58-.11,8.72-.15,5.21-.1-.41,3.81-.41,3.81Z"></path></svg>