<?xml version="1.0" encoding="utf-8"?>
<!-- Generator: Adobe Illustrator 26.0.1, SVG Export Plug-In . SVG Version: 6.00 Build 0)  -->
<svg version="1.1" id="Layer_1" xmlns="http://www.w3.org/2000/svg" xmlns:xlink="http://www.w3.org/1999/xlink" x="0px" y="0px"
	 viewBox="0 0 1252.2 266.5" style="enable-background:new 0 0 1252.2 266.5;" xml:space="preserve">
<style type="text/css">
	.st0{clip-path:url(#SVGID_00000103248792477722543640000008522526457919999676_);}
	.st1{fill-rule:evenodd;clip-rule:evenodd;fill:#011A3C;}
	.st2{enable-background:new    ;}
	.st3{fill:#011A3C;}
</style>
<g>
	<g>
		<defs>
			<rect id="SVGID_1_" x="133.2" y="28.4" width="985.7" height="209.8"/>
		</defs>
		<clipPath id="SVGID_00000108997762644683012410000005584806486264033720_">
			<use xlink:href="#SVGID_1_"  style="overflow:visible;"/>
		</clipPath>
		
			<g id="Group_22" transform="translate(0 0)" style="clip-path:url(#SVGID_00000108997762644683012410000005584806486264033720_);">
			<path id="Path_6" class="st1" d="M167.6,133c9.1-3.8,19.6-4.3,29.1,0c3.3,1.4,5.7,0,5.7-3.3l1-16.2c0-3.3-2.4-6.7-5.7-7.2
				c-12.4-1-24.8,1.4-36.3,5.7c-22.9,9.6-33.4,26.8-25.8,44.9c13.9,33.9,59.7,2.9,66.4,19.1c1.9,5.3-1.4,9.6-8.6,12.9
				c-10.5,4.3-22.5,2.9-34.4-2.4c-1.9-1-4.3-0.5-5.7,1.4c-0.5,0.5-0.5,1.4-0.5,1.9l-1,15.8c0,3.3,2.4,6.7,5.7,7.6
				c14.8,2.9,30.1,1,44-4.8c21-8.6,33.9-25.8,25.8-45.4c-14.3-33.9-60.2-4.3-66.9-20.1C159,139.2,161.9,135.9,167.6,133
				 M274.2,152.6l-2.4-6.7c-1-3.3,1-6.7,4.3-7.6l29.1-9.1c3.3-1.4,5.7-4.3,5.7-8.1l-0.5-9.6c0-2.4-1.9-4.8-4.3-4.8
				c-0.5,0-1.4,0-1.9,0.5l-34.9,10.5c-3.3,1-6.7-1-7.6-4.3l-1.9-6.7c-1-3.3-0.5-6.2,1-6.7l22-6.7c3.8-1.4,8.1-1.9,11.9-2.4l11-1.4
				c1.9,0,3.8-1.4,3.8-3.3c0-1-0.5-1.9-1-2.4l-7.2-12.4c-1.9-2.9-5.7-4.3-9.6-3.3l-65.5,20.1c-2.4,0.5-3.8,2.9-3.3,5.3
				c0,0.5,0.5,1,1,1.4l5.3,8.1c1.9,3.3,3.8,7.2,5.3,11.5l13.9,45.4c1,3.8,1.9,8.1,1.9,11.9v10c0,2.4,1.9,4.8,4.3,4.8
				c0.5,0,1.4,0,1.9-0.5l66.9-20.5c3.3-1.4,5.7-4.3,5.7-8.1v-15.3c0-3.3-2.4-4.8-5.7-2.9l-11,6.7c-3.3,1.9-7.2,3.8-11.5,5.3
				l-19.1,5.7C278.5,157.8,275.1,155.9,274.2,152.6 M377.4,126.8l-1.4-6.7c-0.5-3.3,1.4-6.7,4.8-7.2l30.1-5.7c3.3-1,6.2-3.8,6.7-7.6
				l1-9.6c0.5-2.4-1.4-4.8-3.8-5.3c-0.5,0-1.4,0-1.9,0l-35.8,6.7c-3.3,0.5-6.7-1.4-7.2-4.8l-1.4-6.7c-0.5-3.3,0-6.2,1.9-6.7
				l22.9-4.3c3.8-1,8.1-1,12.4-1h11c3.3,0,4.8-2.4,3.3-5.7l-6.2-12.9c-1.9-3.3-5.3-4.8-9.1-4.3L337.3,58c-2.4,0.5-4.3,2.4-3.8,4.8
				c0,0.5,0.5,1.4,0.5,1.9l4.3,8.6c1.9,3.8,2.9,7.6,3.8,11.9l9.1,46.8c0.5,3.8,1,8.1,0.5,12.4l-1,9.6c-0.5,2.4,1.4,4.8,3.8,5.3
				c0.5,0,1.4,0,1.9,0l68.8-12.9c3.3-1,6.2-3.8,6.7-7.6l1.4-15.8c0-3.3-1.9-5.3-5.3-3.8l-11.9,5.3c-3.8,1.4-7.6,2.9-11.9,3.8
				l-19.6,3.8C381.2,132,377.9,130.1,377.4,126.8 M473.4,35.5l-25.8,2.9c-2.4,0-4.3,2.4-4.3,4.8c0,0.5,0,1.4,0.5,1.9l3.3,9.1
				c1.4,3.8,2.9,7.6,3.3,11.9l5.3,45.9c0.5,4.3,0.5,8.1-0.5,12.4l-1.9,11c-0.5,2.4,1,4.8,3.8,5.3c0.5,0,1,0,1.4,0l57.3-6.2
				c3.8-0.5,6.7-3.3,7.2-6.7l2.4-17.7c0.5-3.3-1.9-4.8-4.8-3.8l-8.6,3.8c-3.8,1.4-7.6,2.4-11.9,2.9l-11.5,1.4
				c-3.3,0.5-6.7-1.9-6.7-5.7l-5.3-45.9c-0.5-4.3-0.5-8.1,0.5-12.4l1.4-9.6c0.5-2.4-1-4.8-3.3-5.3C474.9,35.5,474.4,35.5,473.4,35.5
				 M619.2,73.3c7.2-4.3,11.5-11.9,11-20.5C629.7,37,614.4,27.4,591,28.4l-48.3,1.9c-2.4,0-4.3,1.9-4.8,4.3c0,0.5,0,1.4,0.5,1.9
				l2.9,9.1c1,3.8,1.9,8.1,1.9,12.4l1.9,48.3c0,4.3-0.5,8.1-1,12.4l-2.4,9.1c-1,2.4,0.5,4.8,2.4,5.7c0.5,0,1.4,0.5,1.9,0.5l50.6-2.9
				c24.4-1,39.2-12.4,38.7-30.1c0-10.5-6.2-19.6-16.2-23.4C615.8,76.1,615.8,75.2,619.2,73.3 M576.2,49.9l14.3-0.5
				c7.2-0.5,11.9,3.3,12.4,9.1c0,6.7-4.3,10.5-11.5,11l-14.3,0.5c-3.3,0-6.2-2.4-6.7-5.7l0,0l-0.5-7.6
				C569.9,53.2,572.8,50.3,576.2,49.9L576.2,49.9 M592.9,110.5l-14.3,0.5c-3.3,0-6.2-2.4-6.2-5.7l0,0l-0.5-9.1
				c0-3.3,2.4-6.2,5.7-6.2l0,0l14.3-0.5c9.1-0.5,15.3,3.3,15.8,10C607.7,105.8,602,110.1,592.9,110.5 M721.9,122l0.5,5.7
				c0.5,3.3,3.3,6.2,6.7,6.7l22.9,1.4c3.3,0,4.8-1.9,3.3-5.3l-3.8-7.6c-1.4-2.9-3.8-8.1-4.8-11.5l-25.8-75c-1.4-3.3-4.3-5.7-8.1-6.2
				l-14.8-1c-3.8,0-7.2,1.9-9.1,5.3l-35.8,71.2c-1.9,3.8-3.8,7.2-6.2,10.5l-4.8,7.2c-1.9,2.9-0.5,5.3,2.9,5.3l21,1.4
				c3.8,0,6.7-2.4,8.1-5.7l1.9-5.7c1.4-3.3,4.3-5.7,8.1-5.7l32,1.9C718.5,115.8,721.4,118.2,721.9,122 M708.5,94.3l-15.8-1
				c-2.4,0-3.8-1.4-4.3-3.8c0-1,0-1.9,0.5-2.4l11.5-24.4c1.4-3.3,3.3-2.9,4.3,0.5l8.1,25.8c1,1.9,0,4.3-1.9,5.3
				C709.9,94.3,709,94.3,708.5,94.3 M822.2,64.2c11.5,1.4,16.7,5.3,19.6,12.9c1.4,3.3,3.3,3.8,6.2,1.9l11.5-10
				c2.9-2.4,2.9-6.2,1-9.1c-9.1-9.6-21.5-16.2-34.9-18.2c-31.1-4.3-57.3,14.8-61.6,44c-4.3,28.7,15.3,54.9,43.5,59.2
				c1,0,1.9,0.5,2.9,0.5c13.9,1.4,28.2-1.9,40.1-9.6c2.9-1.9,3.3-5.7,1.4-8.6l0,0l-8.1-11.9c-1.4-1.9-4.3-2.9-6.7-1.4
				c-0.5,0.5-1,0.5-1,1c-5.7,5.3-13.4,7.6-21,6.7c-15.3-1.9-25.8-16.2-23.9-31.5c0-0.5,0-1,0-1c1.4-15.3,14.8-26.3,30.1-24.8
				C821.3,64.2,821.7,64.2,822.2,64.2 M963.2,152.1L977,95.2c1-2.4,2.4-4.3,3.8-6.7l3.3-5.7c1.9-2.9,1.9-5.7,0.5-6.2L953.1,69
				c-1.4-0.5-2.9,1.9-2.4,5.3l0.5,7.2c0,4.3-0.5,8.1-1,12.4l-1.4,6.2l-1.9,8.6c-0.5,1.4-3.3,1.4-6.7,1l-28.2-6.7
				c-3.3-1-5.3-4.3-4.8-7.6l0,0l3.8-15.8c1-2.4,2.4-4.3,3.8-6.7l3.3-5.7c1.9-2.9,1.9-5.7,0.5-6.2l-31.5-7.6
				c-1.4-0.5-2.9,1.9-2.4,5.3l0.5,7.2c0,4.3,0,8.1-1,12.4l-1.4,6.2L880,96.2l-4.3,17.2c-1,3.3-1.9,8.6-2.9,11.9l-1.4,5.3
				c-1,3.8-2.9,7.6-4.8,11.5l-3.3,5.7c-1.9,2.9-1.9,5.7-0.5,6.2l31.5,7.6c1.4,0.5,2.9-1.9,2.4-5.3l-0.5-7.2c0-4.3,0-8.1,1-12.4
				l1.9-8.1c1-3.3,4.3-5.3,7.6-4.3l28.2,6.7c3.3,1,5.7,2.4,5.7,3.3s-1.4,4.3-1.9,7.6l-1.4,5.3c-1,3.8-2.4,7.6-4.8,11.5l-3.3,5.7
				c-1.9,2.9-1.9,5.7-0.5,6.2l31.1,5.7c1.4,0.5,2.9-1.9,2.4-5.3l-0.5-7.2C961.7,160.2,962.2,155.9,963.2,152.1 M1077.4,133
				c9.6,3.8,16.7,11,20.5,20.5c1.4,3.3,4.3,3.8,6.7,1.4l11.9-11c2.4-2.4,2.9-6.2,1-9.1c-8.1-9.6-18.2-16.7-29.6-21.5
				c-22.9-9.6-42.5-4.8-50.2,12.9c-13.9,33.9,40.1,44.4,33.4,60.7c-1.9,5.3-7.6,5.7-15.3,2.9c-10.5-4.3-17.7-13.9-22.5-26.3
				c-0.5-2.4-2.9-3.3-5.3-2.9c-0.5,0-1.4,0.5-1.9,1l-11.9,10.5c-2.9,2.4-3.3,6.2-1.4,9.6c8.6,12.4,20.5,22,34.4,28.2
				c21,8.6,42.5,5.7,50.2-13.4c14.3-33.9-39.7-45.9-33-61.6C1066.4,131.1,1071.2,130.1,1077.4,133"/>
			<path id="Path_7" class="st1" d="M1021.5,91.4c4.8,2.4,7.2,8.1,4.8,12.9c-1.4,2.9-3.3,4.8-6.2,5.3l-4.3,27.2l-7.2-3.3l-9.6-4.3
				l-7.2-3.3l17.2-21.5c-2.4-4.8-0.5-10.5,4.3-12.9C1015.7,90.5,1019.1,90,1021.5,91.4"/>
			<g class="st2">
				<path class="st3" d="M478.7,223.3h6.7c1,0,2.9,0,4.3-0.5l4.3-1c1-0.5,1.9,0.5,1.4,1.4l-1.4,5.3c-0.5,1-1.4,1.9-2.9,1.9h-23.9
					c-1,0-1.9-1-1.4-1.9l1-3.3c0.5-1,0.5-2.9,0.5-4.3v-15.8c0-1-0.5-2.9-0.5-4.3l-1-3.3c-0.5-1,0.5-1.9,1.4-1.9h23.4
					c1.4,0,2.4,1,2.9,1.9l1.4,4.8c0.5,1-0.5,1.9-1.4,1.4l-3.8-0.5c-1-0.5-2.9-0.5-4.3-0.5h-7.6c-0.5,0-1,1-1,1.9v2.4
					c0,1,1,1.9,1.9,1.9h12.4c1.4,0,1.9,1,1.4,1.9l-1,3.8c-0.5,1-1.4,1.9-2.9,1.9h-10.5c-1,0-1.9,1-1.9,1.9v2.4
					C476.8,222.3,477.7,223.3,478.7,223.3z"/>
			</g>
			<g class="st2">
				<path class="st3" d="M514.5,205.1c0,5.7,18.2,2.4,18.2,14.8c0,7.2-6.2,10.5-13.9,10.5c-5.3,0-10.5-1.4-14.3-4.3
					c-1-0.5-1.4-1.9-1-3.3l2.4-4.8c0.5-1,1.4-1.4,2.4-0.5c3.3,3.3,6.7,5.3,10.5,5.3c2.9,0,4.3-1,4.3-2.9c0-5.7-18.2-2.4-18.2-14.8
					c0-6.7,5.3-10.5,13.9-10.5c4.3,0,8.6,1,11.9,2.9c1,0.5,1.4,1.9,1,2.9l-2.4,4.8c-0.5,1-1.4,1-2.4,0.5c-2.4-2.4-5.3-3.8-9.1-3.8
					C516,202.7,514.5,203.7,514.5,205.1z"/>
			</g>
			<g class="st2">
				<path class="st3" d="M567.6,198l1.4,5.3c0.5,1-0.5,1.9-1.4,1.4l-6.7-1.4c-1-0.5-1.9,0.5-1.9,1.9v15.8c0,1,0.5,2.9,0.5,4.3l1,2.9
					c0.5,1-0.5,1.9-1.4,1.9h-9.1c-1,0-1.9-1-1.4-1.9l1-2.9c0.5-1,0.5-2.9,0.5-4.3v-16.2c0-1-1-1.9-1.9-1.9l-7.2,2.4
					c-1,0-1.9-0.5-1.4-1.4l1.4-5.3c0.5-1,1.4-1.9,2.9-1.9h21.5C566.1,196.1,567.6,197,567.6,198z"/>
			</g>
			<g class="st2">
				<path class="st3" d="M581.9,226.6c0,2.4-1.9,4.3-4.3,4.3c-2.4,0-4.3-1.9-4.3-4.3c0-2.4,1.9-4.3,4.3-4.3
					C580.5,222.3,581.9,224.3,581.9,226.6z"/>
			</g>
			<g class="st2">
				<path class="st3" d="M637.3,222.8l2.9-0.5c1-0.5,1.9,0.5,1.9,1.4v6.2c0,1-1,1.9-1.9,1.4l-2.9-0.5c-1-0.5-2.9-0.5-4.3-0.5h-15.3
					c-1,0-1.9-1-1.9-1.9v-1.9c0-1,0.5-2.9,1.4-3.8l11-11.5c1.9-1.9,3.3-4.3,3.3-5.7c0-1.9-1.4-2.9-3.8-2.9s-5.7,1.9-7.6,4.8
					c-0.5,1-1.4,1-1.9,0l-3.8-7.6c-0.5-1,0-1.4,1-1.9c3.3-0.5,6.7-2.9,13.4-2.9c7.2,0,11.9,3.8,11.9,9.1c0,3.8-2.9,7.6-6.7,11.5
					l-5.7,5.7c-1,1-0.5,1.4,0.5,1.4h3.8C634.5,223.3,636.4,223.3,637.3,222.8z"/>
			</g>
			<g class="st2">
				<path class="st3" d="M677.9,213.3c0,11.5-4.8,17.7-13.4,17.7c-9.1,0-13.9-6.2-13.9-17.7s4.8-17.7,13.9-17.7
					C673.2,195.6,677.9,201.8,677.9,213.3z M659.8,213.3c0,8.1,1.4,11.5,4.8,11.5s4.8-3.3,4.8-11.5s-1.4-11.5-4.8-11.5
					S659.8,205.1,659.8,213.3z"/>
				<path class="st3" d="M705.2,209.9v12.4c0,1,0.5,2.9,0.5,4.3l0.5,2.4c0.5,1-0.5,1.9-1.4,1.9h-8.6c-1,0-1.9-1-1.4-1.9l0.5-1.9
					c0.5-1,0.5-2.9,0.5-4.3v-1.9c0-1,0-2.9,0-4.3v-11c0-1,0-1.9-0.5-1.9h-0.5c0,0-1,0.5-1.9,0.5l-2.4,0.5c-1,0.5-1.9-0.5-1.4-1.4
					c0.5-1.4,1-3.8,1.4-5.3l0.5-1.9c0,0,1,0,1.9,0h12.4c0.5,0,1,1,0.5,1.9l-1,2.9v0.5c0,0.5,0,1.4,0,2.9v1.9L705.2,209.9z"/>
			</g>
			<g class="st2">
				<path class="st3" d="M746.3,211.8c0,0.5,0.5,1,1,1c2.4,1.9,4.3,4.8,4.3,7.6c0,6.2-5.7,10-13.9,10c-8.6,0-13.9-3.8-13.9-10
					c0-3.3,1.9-6.2,4.3-8.1c1-0.5,1-1.4,0-2.4c-1.9-1.4-2.9-3.8-2.9-6.2c0-5.7,4.8-9.1,11.9-9.1c7.6,0,12.4,3.8,12.4,9.6
					c0,1.4-0.5,2.9-1,4.3C747.7,209.9,746.3,211.4,746.3,211.8z M731.9,220c0,2.9,1.9,4.3,5.3,4.3c3.8,0,5.7-1.4,5.7-4.3
					c0-2.9-1.9-4.3-5.3-4.3C734.3,215.7,731.9,217.1,731.9,220z M732.9,205.1c0,2.4,1.4,3.8,4.8,3.8c2.9,0,4.8-1.4,4.8-3.8
					s-1.4-3.8-4.8-3.8C734.3,201.3,732.9,202.7,732.9,205.1z"/>
			</g>
		</g>
	</g>
</g>
</svg>
