<svg xmlns="http://www.w3.org/2000/svg" fill="none" viewBox="0 0 131 26" height="26" width="131">
<g clip-path="url(#clip0_9451_1980)">
<path fill="black" d="M128.47 1.81999H127.92V1.23999H128.47C128.67 1.23999 128.79 1.32999 128.79 1.52999C128.79 1.72999 128.67 1.81999 128.47 1.81999ZM128.47 0.97999H127.6V2.91999H127.92V2.07999H128.32L128.81 2.91999H129.16L128.67 2.04999C128.96 2.01999 129.1 1.81999 129.1 1.52999C129.1 1.20999 128.9 0.97999 128.46 0.97999M126.64 1.98999C126.64 2.79999 127.22 3.63999 128.32 3.63999C129.42 3.63999 130 2.79999 130 1.98999C130 1.17999 129.42 0.30999 128.32 0.30999C127.22 0.30999 126.64 1.14999 126.64 1.98999ZM128.32 3.95999C126.99 3.95999 126.32 2.97999 126.32 1.98999C126.32 0.99999 126.99 -0.0100098 128.32 -0.0100098C129.65 -0.0100098 130.32 0.96999 130.32 1.98999C130.32 3.00999 129.65 3.95999 128.32 3.95999ZM122.82 17.74C120.82 17.74 119.23 16.44 119.23 13.48C119.23 10.52 120.82 9.18999 122.82 9.18999C125.28 9.18999 126.61 11.01 126.61 13.48C126.61 15.95 125.28 17.74 122.82 17.74ZM115.58 6.23999V25.64H119.23V18.81C120.19 20.32 121.72 21.01 123.78 21.01C127.81 21.01 130.35 17.85 130.35 13.48C130.35 9.10999 127.8 5.94999 123.78 5.94999C121.7 5.94999 120.16 6.63999 119.21 8.17999L119.18 6.23999H115.59H115.58ZM106.37 17.62C103.79 17.62 102.58 15.71 102.58 13.48C102.58 11.25 103.8 9.33999 106.37 9.33999C108.94 9.33999 110.16 11.25 110.16 13.48C110.16 15.71 108.94 17.62 106.37 17.62ZM106.37 21.01C111.32 21.01 113.9 17.48 113.9 13.48C113.9 9.47999 111.32 5.94999 106.37 5.94999C101.42 5.94999 98.84 9.47999 98.84 13.48C98.84 17.48 101.42 21.01 106.37 21.01ZM90.45 6.23999V20.72H94.1V13.89C94.1 10.15 96.48 9.71999 98.7 9.65999V5.97999C96.44 5.91999 94.85 7.19999 94.07 8.63999L94.04 6.23999H90.45ZM79.45 17.74C76.99 17.74 75.66 15.92 75.66 13.48C75.66 11.04 76.99 9.18999 79.45 9.18999C81.45 9.18999 83.04 10.49 83.04 13.48C83.04 16.47 81.45 17.74 79.45 17.74ZM78.49 21.01C80.6 21.01 82.17 20.29 83.12 18.64C83.5 20.38 84.83 20.93 86.39 20.93C87.23 20.93 88.04 20.81 88.85 20.5V18.01C88.47 18.07 88.18 18.1 87.98 18.1C86.79 18.1 86.68 17.55 86.68 16.54V0.45999H83.03V8.18999C82.07 6.65999 80.54 5.95999 78.48 5.95999C74.45 5.95999 71.91 9.11999 71.91 13.49C71.91 17.86 74.46 21.02 78.48 21.02M63.51 6.24999V20.73H67.16V13.9C67.16 10.16 69.54 9.72999 71.76 9.66999V5.98999C69.5 5.92999 67.91 7.20999 67.13 8.64999L67.1 6.24999H63.51ZM57.86 12.13H51.23C51.61 9.98999 52.85 9.02999 54.71 9.02999C56.21 9.02999 57.66 9.83999 57.87 12.13M60.22 19.77L60.19 16.44C58.51 17.37 56.98 17.66 55.61 17.66C53.09 17.66 51.7 16.65 51.27 14.71H61.61C61.67 14.3 61.7 13.84 61.7 13.35C61.7 8.30999 58.69 5.96999 54.9 5.96999C50.09 5.96999 47.52 9.49999 47.52 13.56C47.52 18.19 50.5 21.03 55.25 21.03C56.9 21.03 58.52 20.77 60.23 19.79M44.1 21.03C45.32 21.03 46.13 20.83 47.08 20.48V17.55C46.39 17.75 45.78 17.81 45.17 17.81C44.01 17.81 43.29 17.46 43.29 15.9V9.17999H46.68V6.25999H43.29V2.25999H39.64V6.25999H37.32V9.17999H39.64V16.71C39.64 19.58 41.06 21.02 44.1 21.02M26.53 16.16C26.53 14.68 27.57 14.02 29.28 14.02H32.38C32.32 17.06 30.44 18.1 28.79 18.1C27.34 18.1 26.53 17.32 26.53 16.16ZM38.11 20.59V18.01C37.76 18.07 37.44 18.1 37.24 18.1C36.08 18.1 35.94 17.55 35.94 16.59V11.81C35.94 8.53999 34.38 5.95999 29.8 5.95999C27.74 5.95999 25.8 6.44999 24.36 7.11999L24.33 10.33C26.07 9.48999 27.89 9.07999 29.34 9.07999C31.14 9.07999 32.38 9.88999 32.38 11.6H28.88C25.23 11.6 22.94 13.16 22.94 16.46C22.94 19.38 25.14 21.03 27.89 21.03C29.77 21.03 31.45 20.45 32.58 18.63C32.87 20.25 34.14 20.92 35.77 20.92C36.67 20.92 37.45 20.8 38.11 20.57M5.77 21C7.83 21 9.59 20.04 10.58 18.13C11.56 20.04 13.33 21 15.39 21C19.56 21 21.15 18.25 21.15 15.27V6.24999H17.5V14.76C17.5 16.64 16.49 17.57 14.95 17.57C13.41 17.57 12.4 16.64 12.4 14.76V6.24999H8.75V14.76C8.75 16.64 7.77 17.57 6.2 17.57C4.63 17.57 3.65 16.64 3.65 14.76V6.24999H0V15.28C0 18.26 1.56 21.01 5.76 21.01"></path>
</g>
<defs>
<clipPath id="clip0_9451_1980">
<rect fill="white" height="25.65" width="130.35"></rect>
</clipPath>
</defs>
</svg>
